<svg id="Capa_1" enable-background="new 0 0 374.999 374.999" height="512" viewBox="0 0 374.999 374.999" width="512" xmlns="http://www.w3.org/2000/svg"><path id="path-1" d="m359.374 374.999h-125c-8.636 0-15.625-6.989-15.625-15.625v-343.749c.001-8.636 6.989-15.625 15.626-15.625h125c8.636 0 15.625 6.989 15.625 15.625v343.749c-.001 8.637-6.989 15.625-15.626 15.625zm-109.374-31.25h93.75v-312.499h-93.75z" transform="translate(9 2)"/><path id="path-1_1_" d="m140.625 374.999h-125c-8.636 0-15.625-6.988-15.625-15.625v-343.749c0-8.636 6.989-15.625 15.625-15.625h125c8.636 0 15.625 6.989 15.625 15.625v343.749c0 8.637-6.989 15.625-15.625 15.625zm-109.375-31.25h93.75v-312.499h-93.75z" transform="translate(2 2)"/></svg>