<svg width="33" height="33" viewBox="0 0 33 33" fill="none" xmlns="http://www.w3.org/2000/svg">
<g clip-path="url(#clip0)">
<path d="M9.23996 6.8922C9.30869 6.86476 9.39127 6.85091 9.47385 6.83707L22.2613 6.38338C22.3438 6.38338 22.4262 6.39722 22.4949 6.41082C28.875 8.47332 33 13.4921 33 19.2259C33 26.8022 25.6025 32.9758 16.5 32.9758C7.39751 32.9758 0 26.8022 0 19.2259C0 13.946 3.53384 9.22964 9.23996 6.8922Z" fill="#F44336"/>
<path d="M8.33258 5.83351C8.42876 5.65476 8.59367 5.53088 8.78627 5.48959C12.6774 4.65095 14.9599 6.13589 15.7437 6.79603L18.1501 6.2872C19.0713 5.21466 21.6563 4.37602 22.4949 4.12853C22.7014 4.07339 22.9488 4.11468 23.1138 4.25214C23.2787 4.38961 23.3887 4.60966 23.3751 4.84355C23.3751 4.93973 23.2099 6.94709 22.2613 8.69337C22.935 9.05088 23.9114 9.49097 24.3238 9.65588C24.6261 9.77976 24.8049 10.096 24.7362 10.426C24.6261 10.9759 24.0075 11.5122 20.3637 11.6497C19.4424 13.3821 18.4112 14.6059 17.4764 15.0322C17.3799 15.0735 17.2838 15.1009 17.1876 15.1009C17.0501 15.1009 16.9263 15.0596 16.8024 14.9909C15.7024 14.2623 15.0151 13.2723 14.6163 11.8284C13.3924 12.131 11.5638 12.4334 9.98243 11.5809C9.74879 11.4573 9.59748 11.196 9.62492 10.9346C9.63877 10.6597 9.81752 10.426 10.065 10.3296C10.6287 10.1096 11.1924 9.68333 11.6461 9.28478C10.4364 8.88597 8.93759 8.07477 8.29129 6.41082C8.22256 6.21847 8.23616 6.01227 8.33258 5.83351Z" fill="#4CAF50"/>
<path d="M13.0075 0.60853C13.8187 -0.202925 15.2351 -0.202925 16.0463 0.60853L16.7337 1.29586C18.59 3.15216 19.2501 6.17718 19.2501 8.19839V8.91342C19.2501 9.29837 18.9475 9.601 18.5625 9.601H15.8124C15.4275 9.601 15.1251 9.29837 15.1251 8.91342V8.19839C15.1251 6.14974 14.3826 5.02231 13.0075 3.64714C12.1688 2.8085 12.1688 1.44718 13.0075 0.60853Z" fill="#388E3C"/>
<path d="M16.5 32.9758C25.6025 32.9758 33 26.8022 33 19.2259C33 13.4921 28.875 8.47332 22.4813 6.42467C22.1238 6.30105 21.7388 6.50725 21.6288 6.86476C21.5188 7.22227 21.7111 7.60723 22.0686 7.73085C27.8712 9.58715 31.6251 14.0971 31.6251 19.2259C31.6251 26.0459 24.8462 31.6009 16.5 31.6009C8.15382 31.6009 1.37492 26.0459 1.37492 19.2259C1.37492 14.5234 4.59254 10.2747 9.76238 8.17094C10.1199 8.03348 10.2851 7.62083 10.1337 7.27716C9.98243 6.91965 9.58363 6.75474 9.23996 6.90605C3.53384 9.22964 0 13.946 0 19.2259C0 26.8022 7.39751 32.9758 16.5 32.9758Z" fill="black"/>
<path d="M25.4376 27.4346C25.575 27.4346 25.7264 27.3933 25.85 27.2972C28.6413 25.2211 30.2499 22.2784 30.2499 19.2259C30.2499 18.841 29.9475 18.5383 29.5626 18.5383C29.1774 18.5383 28.875 18.841 28.875 19.2259C28.875 21.8796 27.5137 24.3547 25.0249 26.1833C24.7225 26.4034 24.6538 26.8435 24.8875 27.1458C25.0249 27.3384 25.2311 27.4346 25.4376 27.4346Z" fill="black"/>
<path d="M17.1876 15.1009C17.2838 15.1009 17.3799 15.0735 17.4764 15.0322C18.4112 14.6059 19.4424 13.3685 20.3637 11.6497C24.0075 11.5122 24.6261 10.9759 24.7362 10.426C24.8049 10.1096 24.6261 9.77976 24.3238 9.65588C23.9114 9.47713 22.935 9.05088 22.2613 8.69337C23.2099 6.9335 23.3612 4.92588 23.3751 4.84355C23.3887 4.60966 23.2925 4.38961 23.1138 4.25214C22.935 4.11468 22.7014 4.07339 22.4813 4.12853C21.5737 4.40346 18.5625 5.36597 17.9437 6.58958C17.7649 6.9335 17.9026 7.34589 18.2463 7.51106C18.5899 7.68981 19.0026 7.55209 19.1675 7.20843C19.3601 6.85091 20.5701 6.25976 21.835 5.79222C21.6701 6.57598 21.3539 7.66212 20.7489 8.51461C20.5424 8.81724 20.5976 9.24348 20.8999 9.46353C21.1751 9.66973 21.6288 9.91722 22.0963 10.1509C21.5737 10.206 20.8586 10.2609 19.9238 10.2883C19.6625 10.3022 19.4424 10.4396 19.3188 10.6735C18.5351 12.2411 17.7649 13.1623 17.215 13.5885C16.4726 12.9697 16.0463 12.131 15.7988 10.8523C15.7575 10.6597 15.6475 10.4948 15.4826 10.3984C15.3174 10.3022 15.1251 10.2747 14.9325 10.3296C14.2862 10.5084 13.1588 10.8384 12.0449 10.7559C12.5125 10.3984 12.9113 10.0134 13.2137 9.72462C13.3375 9.601 13.4337 9.50457 13.5163 9.43584C13.7225 9.25708 13.8051 8.98215 13.7225 8.72106C13.6537 8.45972 13.4337 8.26712 13.1726 8.23968C12.4576 8.12965 10.9037 7.77214 10.0237 6.68601C13.365 6.27335 14.9738 7.9373 15.0425 8.01963C15.3038 8.29456 15.7301 8.30841 16.0189 8.06092C16.2938 7.79958 16.3212 7.37334 16.0599 7.0984C15.9637 6.98838 13.5989 4.47219 8.80012 5.51729C8.60752 5.55833 8.44261 5.6822 8.34618 5.86095C8.25 6.03971 8.23616 6.24591 8.30489 6.43852C8.95118 8.10221 10.45 8.91341 11.66 9.31222C11.1924 9.71102 10.6287 10.1509 10.0789 10.3571C9.81752 10.426 9.63877 10.6597 9.62492 10.9346C9.61133 11.2098 9.74879 11.4573 9.98243 11.5809C11.5638 12.4196 13.3924 12.131 14.6163 11.8284C15.0151 13.2585 15.7024 14.2484 16.8024 14.9909C16.9263 15.0596 17.0501 15.1009 17.1876 15.1009Z" fill="black"/>
<path d="M15.8124 9.601C16.1976 9.601 16.5 9.29837 16.5 8.91342V8.19839C16.5 5.69605 15.5375 4.2247 13.97 2.67103C13.6676 2.3684 13.6676 1.88727 13.97 1.58464C14.2726 1.28227 14.7537 1.28227 15.0564 1.58464L15.7437 2.27223C17.215 3.72972 17.8749 6.30105 17.8749 8.19839V8.91342C17.8749 9.29837 18.1776 9.601 18.5625 9.601C18.9475 9.601 19.2501 9.29837 19.2501 8.91342V8.19839C19.2501 6.17718 18.59 3.16601 16.7201 1.29586L16.0325 0.60853C15.2213 -0.202925 13.8051 -0.202925 12.9939 0.60853C12.155 1.44718 12.155 2.8085 12.9939 3.64714C14.3688 5.02231 15.1112 6.14974 15.1112 8.19839V8.91342C15.1251 9.29837 15.4275 9.601 15.8124 9.601Z" fill="black"/>
</g>
<defs>
<clipPath id="clip0">
<rect width="33" height="33" fill="white" transform="matrix(-1 0 0 1 33 0)"/>
</clipPath>
</defs>
</svg>
